<?xml version="1.0" encoding="UTF-8"?>
<svg xmlns="http://www.w3.org/2000/svg" viewBox="0 0 160 160">
  <defs>
    <style>
      .cls-1 {
        fill: #fff;
      }
    </style>
  </defs>
  <rect width="160" height="160"/>
  <g id="Layer_1" data-name="Layer 1">
    <path class="cls-1" d="M35.18,44.78h33.14s14.36.66,17,16.39c0,0,2.31,11.24-6.68,18.97l12.82,14.94h-12.16l-27.43-31.07h9.72s2.51-.4,4.96,2.51l5.16,5.95s.4.73.99-.07c0,0,5.55-2.84,3.17-11.7,0,0-2.4-6.14-7.07-6.25l-23.73-.06s-1.43.36-3.4-1.95-6.49-7.68-6.49-7.68Z"/>
    <path class="cls-1" d="M74.3,44.78s6.55,1.9,10.63,8.96c0,0,8.2-.47,11.18,1.66,2.98,2.13,7.86,4.72,7.65,16.49s-11.35,15.6-17.09,14.45l7.44,8.75s13.06-1.13,17.38-15.71c4.32-14.58-3.6-25.84-3.6-25.84,0,0-5.06-8.21-16.42-8.76h-17.17Z"/>
    <path class="cls-1" d="M24.96,111.41v-5.66l-.98-.98h-12.13v10.44h2.15v-2.66l6.12-.02,1.52,2.68h2.61l-1.72-2.77h1.61l.81-1.04ZM23.09,110.37h-9.21v-3.49h9.21v3.49Z"/>
    <path class="cls-1" d="M38.72,104.86h-11.25l-.92,1.02v8.17l1.07,1.16h11.25l.88-1.16v-8.14l-1.02-1.04ZM37.64,112.99h-9.05v-5.96h9.05v5.96Z"/>
    <polygon class="cls-1" points="41.36 104.86 44.07 104.86 48.1 110.02 52.09 104.86 54.96 104.86 49.26 112.22 49.22 115.22 47.18 115.22 47.14 112.26 41.36 104.86"/>
    <path class="cls-1" d="M60.92,104.86h-2.94l-5.21,10.35h2.41l1.01-2.2,6.46.05,1.18,2.15h2.31l-5.23-10.35ZM57.27,110.8l1.94-3.7h.38l1.84,3.7h-4.15Z"/>
    <polygon class="cls-1" points="67.73 115.22 67.73 104.86 69.7 104.86 69.7 113.05 80.86 113.13 80.86 115.22 67.73 115.22"/>
    <path class="cls-1" d="M99.11,104.86h-12.18v10.35h12.38l.86-1.14v-8.28l-1.07-.92ZM98.2,112.92h-9.19v-5.91h9.19v5.91Z"/>
    <path class="cls-1" d="M114.89,111.37v-5.58l-.95-.93h-12.2v10.35h2.08l.05-2.76,6.15.05,1.65,2.71h2.36l-1.61-2.71,1.56-.05.9-1.09ZM112.9,110.04h-9.17v-3.02h9.17v3.02Z"/>
    <rect class="cls-1" x="116.48" y="104.86" width="2.02" height="10.35"/>
    <polygon class="cls-1" points="125.23 115.22 120.14 104.86 122.47 104.86 126.4 112.92 127.03 112.92 131.06 104.86 133.35 104.86 128.36 115.22 125.23 115.22"/>
    <polygon class="cls-1" points="134.99 115.22 134.99 104.86 148.14 104.86 148.14 107.02 137.11 107.02 137.11 108.84 148.14 108.84 148.14 111.12 136.95 111.12 136.95 112.92 148.14 112.92 148.14 115.22 134.99 115.22"/>
  </g>
</svg>