<svg xmlns="http://www.w3.org/2000/svg" version="1.1" width="187" height="30" viewBox="0 0 187 30"><g><g id="View Report - Sm" xmlns="http://www.w3.org/2000/svg"><path d="M0 4C0 1.79086 1.79086 0 4 0H63C65.2091 0 67 1.79086 67 4V26C67 28.2091 65.2091 30 63 30H4C1.79086 30 0 28.2091 0 26V4Z" fill="#DADFE8" /><path d="M2 19C2 17.8954 2.89543 17 4 17H63C64.1046 17 65 17.8954 65 19V26C65 27.1046 64.1046 28 63 28H4C2.89543 28 2 27.1046 2 26V19Z" fill="white" /><path d="M12.8171 4.40388H20.5288V12.5398H12.8171V4.40388Z" fill="black" /><path d="M21.0191 4.40388H28.7347V12.5398H21.0191V4.40388Z" fill="black" /><path d="M29.2213 4.40388H36.9368V12.5398H29.2213V4.40388Z" fill="black" /><path d="M37.4272 4.40388H45.1427V12.5398H37.4272V4.40388Z" fill="black" /><path d="M4.61115 4.4039H12.3267V12.5398H4.61115V4.4039Z" fill="black" /><path d="M8.64275 11.3266C7.04017 11.3266 6.19061 10.1327 6.19061 8.52417C6.19061 6.77217 7.20236 5.71788 8.65047 5.71788C9.97115 5.71788 10.4963 6.29154 10.867 7.31483L9.51934 7.86136C9.32625 7.35746 9.1409 7.028 8.65047 7.028C8.03261 7.028 7.75457 7.65205 7.75457 8.52417C7.75457 9.39241 8.01716 10.0165 8.66592 10.0165C9.13317 10.0165 9.33398 9.76064 9.62746 9.24512L10.8902 9.92344C10.5195 10.6366 9.91708 11.3266 8.64275 11.3266Z" fill="white" /><path d="M17.1074 9.05906H16.2153L16.3157 8.69471C16.5088 8.00477 16.5938 7.70243 16.6633 7.33808C16.7328 7.70243 16.8177 7.99702 17.0108 8.69471L17.1074 9.05906ZM19.378 11.2103L17.424 5.77989H15.9218L13.964 11.2103H15.5627L15.8562 10.249H17.4703L17.7638 11.2103H19.378Z" fill="white" /><path d="M25.6879 7.58227C25.6879 7.96988 25.4948 8.18694 25.0083 8.18694H24.1317V6.99698H25.0314C25.5025 6.99698 25.6879 7.2373 25.6879 7.58227ZM27.2789 11.2064L26.2015 9.12108C26.7923 8.85363 27.1708 8.34974 27.1708 7.53188C27.1708 6.24502 26.3328 5.76439 25.07 5.76439H22.6642V11.2064H24.1317V9.36915H24.7302L25.6107 11.2064H27.2789Z" fill="white" /><path d="M32.4573 7.05125V7.81097H34.1409V9.08232H32.4573V11.2064H30.9744V5.77989H35.2376V7.059L32.4573 7.05125Z" fill="white" /><path d="M41.7329 9.05131H40.8409L40.9375 8.69471C41.1305 8.00477 41.2155 7.70243 41.285 7.33808C41.3545 7.70243 41.4395 7.99702 41.6325 8.69471L41.7329 9.05131ZM44.0036 11.1948L42.0457 5.77989H40.5397L38.5857 11.1948H40.1844L40.4779 10.2335H42.0921L42.3856 11.1948H44.0036Z" fill="white" /><path d="M49.487 11.1444C49.3017 11.4545 49.097 11.7529 48.8808 12.0437L48.8112 12.1367H50.0779L50.0161 12.0437C49.8075 11.7026 49.6299 11.439 49.487 11.1444Z" fill="white" /><path d="M48.5603 10.032L46.7028 7.35746H48.5989L48.9271 7.8846C49.1357 8.20244 49.321 8.53191 49.4909 8.87301C49.6222 8.58618 49.8539 8.22182 50.0624 7.8846L50.3907 7.35746H52.252L50.3907 10.0009L51.9469 12.1367H52.9587V4.79924H46.0464V12.1367H47.0002L48.5603 10.032Z" fill="white" /><path d="M45.6293 4.40388V12.532H53.3449V4.40388H45.6293ZM48.8112 12.1367L48.8808 12.0437C49.097 11.7529 49.3017 11.4545 49.487 11.1444C49.6299 11.439 49.8075 11.7026 50.0161 12.0437L50.0779 12.1367H48.8112ZM52.9394 12.1367H51.9277L50.3753 10.001L52.2327 7.35746H50.3753L50.0432 7.88461C49.8385 8.22183 49.6068 8.58618 49.4717 8.87301C49.3056 8.53191 49.1164 8.20245 48.9079 7.88461L48.5796 7.35746H46.6836L48.541 10.032L46.9655 12.1367H46.0116V4.80699H52.9278L52.9394 12.1367Z" fill="black" /><path d="M58.5079 12.5437V11.5747L60.4541 11.7956L60.3576 10.9855L62.3888 9.45443L61.9833 8.89627L62.3888 7.59003L61.0797 7.71794L60.736 7.07451L59.4733 8.27998L59.9289 5.61323L59.0871 6.11712L58.226 4.40776L58.2221 4.40001L57.361 6.10937L56.5153 5.60548L56.9748 8.2761L55.7082 7.07064L55.3645 7.71019L54.0515 7.58616L54.4609 8.88852L54.0515 9.45056L56.0866 10.9777L55.9939 11.7917L57.9325 11.5708V12.5437H58.5079Z" fill="#EF0215" /><path d="M13.5504 19.9081L11.7837 25.0991H10.5841L8.82471 19.9081H9.93707L10.9113 22.998C10.9258 23.0513 10.9525 23.1507 10.9913 23.2961C11.0301 23.4366 11.0688 23.5869 11.1076 23.7468C11.1464 23.902 11.173 24.0328 11.1876 24.1395C11.2021 24.0328 11.2263 23.902 11.2603 23.7468C11.2991 23.5869 11.3354 23.4366 11.3693 23.2961C11.4081 23.1507 11.4372 23.0513 11.4566 22.998L12.4381 19.9081H13.5504Z" fill="black" /><path d="M16.2215 25.0991H13.8586V24.4739L14.4912 24.1831V20.8242L13.8586 20.5333V19.9081H16.2215V20.5333L15.589 20.8242V24.1831L16.2215 24.4739V25.0991Z" fill="black" /><path d="M20.1669 25.0991H17.1788V19.9081H20.1669V20.8096H18.2766V21.9511H20.0361V22.8526H18.2766V24.1903H20.1669V25.0991Z" fill="black" /><path d="M27.6959 19.9081L26.3727 25.0991H25.1222L24.417 22.3728C24.4024 22.3194 24.383 22.2395 24.3588 22.1328C24.3394 22.0262 24.3152 21.9099 24.2861 21.7839C24.2619 21.6578 24.2376 21.5391 24.2134 21.4276C24.194 21.3161 24.1819 21.2265 24.177 21.1586C24.1722 21.2265 24.1576 21.3161 24.1334 21.4276C24.114 21.5391 24.0922 21.6578 24.068 21.7839C24.0437 21.905 24.0195 22.0214 23.9953 22.1328C23.971 22.2395 23.9517 22.3219 23.9371 22.38L23.2392 25.0991H21.9887L20.6655 19.9081H21.7487L22.4103 22.7435C22.4394 22.855 22.4709 22.9956 22.5049 23.1652C22.5388 23.3349 22.5703 23.5045 22.5994 23.6741C22.6285 23.8438 22.6503 23.9868 22.6648 24.1031C22.6793 23.9819 22.7012 23.8389 22.7302 23.6741C22.7593 23.5045 22.7884 23.3421 22.8175 23.187C22.8514 23.0271 22.8805 22.9035 22.9047 22.8162L23.6608 19.9081H24.7005L25.4566 22.8162C25.4809 22.9035 25.5075 23.0271 25.5366 23.187C25.5705 23.3421 25.602 23.5045 25.6311 23.6741C25.6602 23.8438 25.682 23.9868 25.6965 24.1031C25.7111 23.9819 25.7329 23.8389 25.762 23.6741C25.7911 23.5045 25.8226 23.3373 25.8565 23.1725C25.8953 23.0028 25.9268 22.8599 25.951 22.7435L26.6126 19.9081H27.6959Z" fill="black" /><path d="M31.895 19.9081C32.6026 19.9081 33.1237 20.0365 33.4581 20.2934C33.7974 20.5503 33.967 20.9405 33.967 21.464C33.967 21.7015 33.921 21.9099 33.8289 22.0892C33.7417 22.2637 33.6229 22.414 33.4726 22.54C33.3272 22.6611 33.1697 22.7605 33.0001 22.8381L34.5269 25.0991H33.3054L32.0695 23.1071H31.4806V25.0991H30.3827V19.9081H31.895ZM31.815 20.8096H31.4806V22.2128H31.8368C32.2003 22.2128 32.4596 22.1522 32.6147 22.031C32.7747 21.9099 32.8547 21.7305 32.8547 21.493C32.8547 21.2458 32.7698 21.0714 32.6002 20.9696C32.4306 20.8629 32.1688 20.8096 31.815 20.8096Z" fill="black" /><path d="M38.2431 25.0991H35.255V19.9081H38.2431V20.8096H36.3528V21.9511H38.1123V22.8526H36.3528V24.1903H38.2431V25.0991Z" fill="black" /><path d="M41.0536 19.9081C41.7225 19.9081 42.2096 20.0535 42.515 20.3443C42.8252 20.6303 42.9803 21.0253 42.9803 21.5294C42.9803 21.8347 42.9173 22.1183 42.7913 22.38C42.6652 22.6418 42.4544 22.8526 42.1587 23.0125C41.8679 23.1725 41.4705 23.2525 40.9664 23.2525H40.4938V25.0991H39.396V19.9081H41.0536ZM40.9955 20.8096H40.4938V22.3509H40.8573C41.1675 22.3509 41.4123 22.2904 41.5917 22.1692C41.7758 22.0432 41.8679 21.842 41.8679 21.5657C41.8679 21.0617 41.5771 20.8096 40.9955 20.8096Z" fill="black" /><path d="M48.7452 22.4963C48.7452 23.0344 48.6555 23.5045 48.4762 23.9068C48.3017 24.3042 48.0303 24.6144 47.6619 24.8374C47.2984 25.0604 46.8355 25.1718 46.2733 25.1718C45.711 25.1718 45.2457 25.0604 44.8773 24.8374C44.5138 24.6144 44.2424 24.3018 44.0631 23.8995C43.8886 23.4972 43.8013 23.0271 43.8013 22.4891C43.8013 21.9511 43.8886 21.4833 44.0631 21.0859C44.2424 20.6885 44.5138 20.3807 44.8773 20.1626C45.2457 19.9396 45.7134 19.8281 46.2805 19.8281C46.8428 19.8281 47.3056 19.9396 47.6692 20.1626C48.0327 20.3807 48.3017 20.6909 48.4762 21.0932C48.6555 21.4906 48.7452 21.9583 48.7452 22.4963ZM44.9573 22.4963C44.9573 23.0392 45.0615 23.4682 45.2699 23.7832C45.4784 24.0934 45.8128 24.2485 46.2733 24.2485C46.7434 24.2485 47.0803 24.0934 47.2838 23.7832C47.4874 23.4682 47.5892 23.0392 47.5892 22.4963C47.5892 21.9535 47.4874 21.527 47.2838 21.2168C47.0803 20.9017 46.7458 20.7442 46.2805 20.7442C45.8152 20.7442 45.4784 20.9017 45.2699 21.2168C45.0615 21.527 44.9573 21.9535 44.9573 22.4963Z" fill="black" /><path d="M51.4054 19.9081C52.113 19.9081 52.6341 20.0365 52.9685 20.2934C53.3078 20.5503 53.4774 20.9405 53.4774 21.464C53.4774 21.7015 53.4314 21.9099 53.3393 22.0892C53.2521 22.2637 53.1333 22.414 52.9831 22.54C52.8377 22.6611 52.6801 22.7605 52.5105 22.8381L54.0373 25.0991H52.8158L51.5799 23.1071H50.991V25.0991H49.8932V19.9081H51.4054ZM51.3254 20.8096H50.991V22.2128H51.3472C51.7107 22.2128 51.9701 22.1522 52.1252 22.031C52.2851 21.9099 52.3651 21.7305 52.3651 21.493C52.3651 21.2458 52.2803 21.0714 52.1106 20.9696C51.941 20.8629 51.6792 20.8096 51.3254 20.8096Z" fill="black" /><path d="M56.7648 25.0991H55.667V20.8242H54.2565V19.9081H58.1752V20.8242H56.7648V25.0991Z" fill="black" /></g></g><g transform="translate(69)"><g id="No Accidents - Sm" xmlns="http://www.w3.org/2000/svg"><path d="M0 2.97832C0 1.36495 1.31877 0.0570587 2.94556 0.0570587L64.0544 0C65.6812 0 67 1.30789 67 2.92126V27.0217C67 28.635 65.6812 29.9429 64.0544 29.9429L2.94556 30C1.31877 30 0 28.6921 0 27.0787V2.97832Z" fill="#0074E5" /><path d="M52.7518 21.8444V19.2737H53.444L54.1362 21.2528L54.8505 19.2737H55.5206V21.8444H55.0493V20.3545C55.0493 20.3156 55.0518 20.2401 55.0567 20.1281C55.0616 20.0113 55.0665 19.9237 55.0714 19.8652H55.042L54.2982 21.8444H53.9079L53.201 19.8652H53.1715C53.1764 19.9431 53.1814 20.0308 53.1863 20.1281C53.1912 20.2255 53.1936 20.2888 53.1936 20.318V21.8444H52.7518ZM51.2275 21.8444V19.668H50.4837V19.2737H52.4425V19.668H51.6914V21.8444H51.2275Z" fill="white" /><path d="M10.3999 24.0698L10.0112 22.729H7.82915L7.44046 24.0698H5.79733L7.94399 17.7862H9.86981L12.043 24.0698H10.3999ZM9.67546 21.4845L9.30443 20.2313C9.27499 20.1261 9.23376 19.9859 9.18076 19.8106C9.13364 19.6295 9.08358 19.4455 9.03058 19.2585C8.98347 19.0716 8.94518 18.9138 8.91574 18.7853C8.88629 18.9138 8.84801 19.0745 8.8009 19.2673C8.75378 19.4542 8.70667 19.6383 8.65955 19.8194C8.61244 19.9947 8.57416 20.132 8.54471 20.2313L8.17368 21.4845H9.67546Z" fill="white" /><path d="M14.7641 24.1575C14.0339 24.1575 13.4626 23.9617 13.0503 23.5703C12.6381 23.173 12.432 22.5449 12.432 21.6861C12.432 21.1018 12.538 20.6257 12.75 20.2576C12.962 19.8837 13.2506 19.6091 13.6157 19.4338C13.9867 19.2585 14.4108 19.1709 14.8878 19.1709C15.2058 19.1709 15.4915 19.203 15.7447 19.2673C15.998 19.3315 16.2276 19.4133 16.4338 19.5127L16.0009 20.6257C15.7948 20.5439 15.6034 20.4767 15.4267 20.4241C15.25 20.3715 15.0704 20.3452 14.8878 20.3452C14.5816 20.3452 14.346 20.4562 14.1811 20.6782C14.0221 20.8944 13.9426 21.2274 13.9426 21.6773C13.9426 22.1272 14.028 22.4573 14.1988 22.6676C14.3696 22.8721 14.6022 22.9744 14.8966 22.9744C15.1499 22.9744 15.3914 22.9393 15.621 22.8692C15.8507 22.7932 16.0686 22.6881 16.2748 22.5537V23.7631C16.0686 23.8975 15.8478 23.9968 15.6122 24.0611C15.3825 24.1253 15.0998 24.1575 14.7641 24.1575Z" fill="white" /><path d="M19.4141 24.1575C18.6838 24.1575 18.1125 23.9617 17.7003 23.5703C17.288 23.173 17.0819 22.5449 17.0819 21.6861C17.0819 21.1018 17.1879 20.6257 17.3999 20.2576C17.6119 19.8837 17.9005 19.6091 18.2657 19.4338C18.6367 19.2585 19.0607 19.1709 19.5378 19.1709C19.8558 19.1709 20.1414 19.203 20.3947 19.2673C20.6479 19.3315 20.8776 19.4133 21.0837 19.5127L20.6508 20.6257C20.4447 20.5439 20.2533 20.4767 20.0766 20.4241C19.8999 20.3715 19.7203 20.3452 19.5378 20.3452C19.2315 20.3452 18.9959 20.4562 18.831 20.6782C18.672 20.8944 18.5925 21.2274 18.5925 21.6773C18.5925 22.1272 18.6779 22.4573 18.8487 22.6676C19.0195 22.8721 19.2521 22.9744 19.5466 22.9744C19.7998 22.9744 20.0413 22.9393 20.271 22.8692C20.5007 22.7932 20.7186 22.6881 20.9247 22.5537V23.7631C20.7186 23.8975 20.4977 23.9968 20.2621 24.0611C20.0325 24.1253 19.7498 24.1575 19.4141 24.1575Z" fill="white" /><path d="M22.7389 17.348C22.9568 17.348 23.1423 17.3947 23.2955 17.4882C23.4545 17.5817 23.534 17.7628 23.534 18.0316C23.534 18.2945 23.4545 18.4756 23.2955 18.5749C23.1423 18.6684 22.9568 18.7152 22.7389 18.7152C22.5151 18.7152 22.3237 18.6684 22.1647 18.5749C22.0116 18.4756 21.935 18.2945 21.935 18.0316C21.935 17.7628 22.0116 17.5817 22.1647 17.4882C22.3237 17.3947 22.5151 17.348 22.7389 17.348ZM23.4721 19.2585V24.0698H21.988V19.2585H23.4721Z" fill="white" /><path d="M26.2854 24.1575C25.7612 24.1575 25.3342 23.9471 25.0044 23.5265C24.6746 23.1058 24.5097 22.4865 24.5097 21.6686C24.5097 20.8448 24.6776 20.2225 25.0133 19.8019C25.349 19.3812 25.7877 19.1709 26.3295 19.1709C26.6711 19.1709 26.9479 19.2381 27.1599 19.3724C27.3719 19.5068 27.5427 19.6733 27.6723 19.872H27.7076C27.69 19.7668 27.6694 19.6178 27.6458 19.425C27.6281 19.2264 27.6193 19.0307 27.6193 18.8379V17.4094H29.1122V24.0698H27.9815L27.6811 23.4476H27.6193C27.4956 23.6463 27.3278 23.8157 27.1158 23.9559C26.9096 24.0903 26.6328 24.1575 26.2854 24.1575ZM26.8507 22.9831C27.1688 22.9831 27.3926 22.8867 27.5221 22.6939C27.6576 22.5011 27.7282 22.209 27.7341 21.8175V21.6861C27.7341 21.2537 27.6694 20.9266 27.5398 20.7045C27.4161 20.4767 27.1805 20.3628 26.8331 20.3628C26.5798 20.3628 26.3796 20.4738 26.2324 20.6958C26.0851 20.9178 26.0115 21.2508 26.0115 21.6948C26.0115 22.133 26.0851 22.4573 26.2324 22.6676C26.3855 22.878 26.5916 22.9831 26.8507 22.9831Z" fill="white" /><path d="M32.4841 19.1709C33.1673 19.1709 33.7091 19.3578 34.1096 19.7318C34.5101 20.0998 34.7103 20.6432 34.7103 21.3618V22.0454H31.6449C31.6567 22.3609 31.7598 22.6121 31.9541 22.7991C32.1485 22.986 32.4253 23.0795 32.7845 23.0795C33.0966 23.0795 33.3793 23.0503 33.6326 22.9919C33.8858 22.9335 34.1479 22.84 34.4188 22.7114V23.8069C34.1832 23.9296 33.93 24.0173 33.6591 24.0698C33.3882 24.1283 33.0554 24.1575 32.6608 24.1575C32.172 24.1575 31.7362 24.0698 31.3534 23.8946C30.9765 23.7193 30.6791 23.4505 30.4612 23.0883C30.2491 22.7261 30.1431 22.2616 30.1431 21.6948C30.1431 20.8418 30.3581 20.2079 30.788 19.7931C31.2179 19.3783 31.7833 19.1709 32.4841 19.1709ZM32.5107 20.1962C32.281 20.1962 32.0896 20.2693 31.9364 20.4153C31.7892 20.5614 31.7009 20.7863 31.6714 21.0901H33.341C33.3352 20.8331 33.2615 20.6198 33.1202 20.4504C32.9847 20.281 32.7816 20.1962 32.5107 20.1962Z" fill="white" /><path d="M38.6021 19.1709C39.1144 19.1709 39.5267 19.3111 39.8388 19.5915C40.1568 19.8661 40.3159 20.3131 40.3159 20.9324V24.0698H38.8317V21.3443C38.8317 21.0113 38.7758 20.76 38.6639 20.5906C38.552 20.4212 38.3753 20.3365 38.1339 20.3365C37.7687 20.3365 37.5214 20.4708 37.3918 20.7396C37.2681 21.0025 37.2063 21.3823 37.2063 21.8789V24.0698H35.7133V19.2585H36.8441L37.0473 19.8807H37.1179C37.2711 19.647 37.4742 19.4718 37.7275 19.3549C37.9866 19.2322 38.2781 19.1709 38.6021 19.1709Z" fill="white" /><path d="M43.7707 22.9831C43.918 22.9831 44.0564 22.9685 44.1859 22.9393C44.3214 22.9101 44.4568 22.8721 44.5923 22.8254V23.9121C44.4333 23.9822 44.2507 24.0406 44.0446 24.0874C43.8384 24.1341 43.594 24.1575 43.3114 24.1575C43.011 24.1575 42.743 24.1107 42.5075 24.0173C42.2778 23.9179 42.0952 23.7514 41.9597 23.5177C41.8302 23.2782 41.7654 22.9481 41.7654 22.5274V20.3628H41.147V19.7493L41.8891 19.276L42.2954 18.2594H43.2495V19.2585H44.5393V20.3628H43.2495V22.4748C43.2495 22.6443 43.2966 22.7728 43.3909 22.8604C43.4851 22.9422 43.6117 22.9831 43.7707 22.9831Z" fill="white" /><path d="M49.003 22.615C49.003 23.0941 48.8352 23.471 48.4995 23.7456C48.1697 24.0202 47.6514 24.1575 46.9447 24.1575C46.6031 24.1575 46.3027 24.137 46.0436 24.0961C45.7904 24.0552 45.5342 23.9822 45.2751 23.877V22.6852C45.5577 22.8137 45.8522 22.913 46.1585 22.9831C46.4647 23.0474 46.7238 23.0795 46.9359 23.0795C47.1596 23.0795 47.3216 23.0503 47.4217 22.9919C47.5218 22.9335 47.5719 22.8517 47.5719 22.7465C47.5719 22.6705 47.5454 22.6034 47.4924 22.5449C47.4453 22.4865 47.3452 22.4222 47.192 22.3521C47.0448 22.2762 46.824 22.1769 46.5295 22.0542C46.2409 21.9373 46.0024 21.8146 45.8139 21.6861C45.6314 21.5517 45.493 21.3969 45.3987 21.2216C45.3104 21.0405 45.2662 20.8155 45.2662 20.5468C45.2662 20.0911 45.4429 19.7493 45.7963 19.5214C46.1496 19.2877 46.6237 19.1709 47.2185 19.1709C47.5307 19.1709 47.8251 19.203 48.1019 19.2673C48.3787 19.3315 48.6644 19.4309 48.9588 19.5652L48.5348 20.5643C48.2992 20.4592 48.0666 20.3744 47.8369 20.3102C47.6072 20.2459 47.4011 20.2138 47.2185 20.2138C46.877 20.2138 46.7062 20.3014 46.7062 20.4767C46.7062 20.5468 46.7297 20.6081 46.7768 20.6607C46.8298 20.7075 46.927 20.7659 47.0684 20.836C47.2156 20.9003 47.4276 20.9908 47.7044 21.1077C47.9812 21.2187 48.2168 21.3355 48.4111 21.4582C48.6055 21.5809 48.7527 21.7357 48.8528 21.9227C48.953 22.1038 49.003 22.3346 49.003 22.615Z" fill="white" /><path d="M11.9212 12.5601H9.97775L7.43355 7.9766H7.39821C7.4041 8.08761 7.40999 8.23659 7.41588 8.42355C7.42766 8.61052 7.43944 8.815 7.45122 9.03702C7.463 9.25319 7.47183 9.46352 7.47772 9.66801V12.5601H6.13495V6.30272H8.0696L10.605 10.8336H10.6315C10.6256 10.7284 10.6167 10.5853 10.605 10.4042C10.5991 10.2231 10.5902 10.0273 10.5785 9.817C10.5726 9.60082 10.5696 9.39633 10.5696 9.20353V6.30272H11.9212V12.5601Z" fill="white" /><path d="M17.8157 10.1413C17.8157 10.9475 17.6007 11.5668 17.1708 11.9992C16.7467 12.4315 16.1637 12.6477 15.4216 12.6477C14.9623 12.6477 14.553 12.5513 14.1937 12.3585C13.8404 12.1657 13.5606 11.8823 13.3545 11.5084C13.1542 11.1345 13.0541 10.6788 13.0541 10.1413C13.0541 9.34667 13.2661 8.73613 13.6902 8.30963C14.1142 7.87728 14.7002 7.66111 15.4481 7.66111C15.9075 7.66111 16.3139 7.75751 16.6672 7.95031C17.0265 8.14311 17.3062 8.42356 17.5065 8.79163C17.7126 9.15971 17.8157 9.60959 17.8157 10.1413ZM14.5647 10.1413C14.5647 10.5853 14.6325 10.9242 14.7679 11.1579C14.9034 11.3916 15.1272 11.5084 15.4393 11.5084C15.7456 11.5084 15.9664 11.3916 16.1019 11.1579C16.2373 10.9242 16.305 10.5853 16.305 10.1413C16.305 9.69723 16.2373 9.3642 16.1019 9.14219C15.9664 8.91433 15.7426 8.8004 15.4305 8.8004C15.1242 8.8004 14.9034 8.91433 14.7679 9.14219C14.6325 9.3642 14.5647 9.69723 14.5647 10.1413Z" fill="white" /><path d="M23.1843 6.30272C24.8804 6.30272 25.7285 6.92495 25.7285 8.1694C25.7285 8.57838 25.6195 8.91725 25.4016 9.186C25.1896 9.45476 24.9216 9.67093 24.5977 9.83453L26.444 12.5601H24.7567L23.3344 10.2114H22.7426V12.5601H21.2408V6.30272H23.1843ZM23.1224 7.47707H22.7426V9.04578H23.1224C23.4817 9.04578 23.7496 8.98152 23.9263 8.85298C24.1089 8.7186 24.2002 8.50827 24.2002 8.22199C24.2002 7.97076 24.1148 7.7838 23.944 7.66111C23.7732 7.53841 23.4993 7.47707 23.1224 7.47707Z" fill="white" /><path d="M29.1293 7.66111C29.8125 7.66111 30.3543 7.84807 30.7547 8.22199C31.1552 8.59007 31.3555 9.13342 31.3555 9.85205V10.5356H28.2901C28.3018 10.8511 28.4049 11.1024 28.5992 11.2893C28.7936 11.4763 29.0704 11.5698 29.4296 11.5698C29.7418 11.5698 30.0245 11.5405 30.2777 11.4821C30.531 11.4237 30.793 11.3302 31.0639 11.2017V12.2971C30.8284 12.4198 30.5751 12.5075 30.3042 12.5601C30.0333 12.6185 29.7006 12.6477 29.306 12.6477C28.8172 12.6477 28.3813 12.5601 27.9985 12.3848C27.6216 12.2095 27.3242 11.9408 27.1063 11.5785C26.8943 11.2163 26.7883 10.7518 26.7883 10.1851C26.7883 9.33207 27.0032 8.69815 27.4332 8.28333C27.8631 7.86851 28.4285 7.66111 29.1293 7.66111ZM29.1558 8.68647C28.9261 8.68647 28.7347 8.7595 28.5816 8.90556C28.4343 9.05163 28.346 9.27656 28.3166 9.58037H29.9862C29.9803 9.3233 29.9067 9.11005 29.7653 8.94062C29.6299 8.77118 29.4267 8.68647 29.1558 8.68647Z" fill="white" /><path d="M35.1854 7.66111C35.7272 7.66111 36.16 7.87436 36.484 8.30086C36.8079 8.72152 36.9698 9.33499 36.9698 10.1413C36.9698 10.6905 36.8903 11.152 36.7313 11.5259C36.5723 11.894 36.3544 12.1745 36.0776 12.3673C35.8067 12.5542 35.4945 12.6477 35.1412 12.6477C34.7937 12.6477 34.5199 12.5864 34.3196 12.4637C34.1253 12.341 33.9692 12.2066 33.8514 12.0605H33.7896C33.8073 12.1715 33.822 12.2884 33.8338 12.4111C33.8455 12.5338 33.8514 12.6652 33.8514 12.8054V14.6634H32.3585V7.74874H33.5687L33.7807 8.36221H33.8514C33.9751 8.17525 34.1429 8.01166 34.355 7.87144C34.567 7.73122 34.8438 7.66111 35.1854 7.66111ZM34.6642 8.82669C34.3638 8.82669 34.1547 8.92309 34.0369 9.11589C33.9191 9.3087 33.8573 9.60375 33.8514 10.001V10.1325C33.8514 10.559 33.9103 10.8862 34.0281 11.114C34.1459 11.3419 34.3638 11.4558 34.6818 11.4558C35.1942 11.4558 35.4504 11.0118 35.4504 10.1237C35.4504 9.6797 35.3856 9.35252 35.256 9.14219C35.1265 8.93185 34.9292 8.82669 34.6642 8.82669Z" fill="white" /><path d="M42.5061 10.1413C42.5061 10.9475 42.2911 11.5668 41.8612 11.9992C41.4372 12.4315 40.8541 12.6477 40.112 12.6477C39.6527 12.6477 39.2434 12.5513 38.8841 12.3585C38.5308 12.1657 38.251 11.8823 38.0449 11.5084C37.8447 11.1345 37.7445 10.6788 37.7445 10.1413C37.7445 9.34667 37.9565 8.73613 38.3806 8.30963C38.8046 7.87728 39.3906 7.66111 40.1386 7.66111C40.5979 7.66111 41.0043 7.75751 41.3577 7.95031C41.7169 8.14311 41.9966 8.42356 42.1969 8.79163C42.403 9.15971 42.5061 9.60959 42.5061 10.1413ZM39.2551 10.1413C39.2551 10.5853 39.3229 10.9242 39.4583 11.1579C39.5938 11.3916 39.8176 11.5084 40.1297 11.5084C40.436 11.5084 40.6568 11.3916 40.7923 11.1579C40.9277 10.9242 40.9955 10.5853 40.9955 10.1413C40.9955 9.69723 40.9277 9.3642 40.7923 9.14219C40.6568 8.91433 40.433 8.8004 40.1209 8.8004C39.8146 8.8004 39.5938 8.91433 39.4583 9.14219C39.3229 9.3642 39.2551 9.69723 39.2551 10.1413Z" fill="white" /><path d="M46.3485 7.66111C46.425 7.66111 46.5104 7.66695 46.6046 7.67863C46.6989 7.68447 46.7725 7.69324 46.8255 7.70492L46.7018 9.0896C46.584 9.06039 46.425 9.04578 46.2248 9.04578C46.0363 9.04578 45.8479 9.07792 45.6594 9.14219C45.4768 9.20061 45.3237 9.3087 45.2 9.46645C45.0822 9.62419 45.0234 9.85205 45.0234 10.15V12.5601H43.5304V7.74874H44.6523L44.882 8.53748H44.9439C45.0852 8.29794 45.2766 8.09345 45.5181 7.92402C45.7654 7.74874 46.0422 7.66111 46.3485 7.66111Z" fill="white" /><path d="M49.802 11.4734C49.9492 11.4734 50.0876 11.4587 50.2172 11.4295C50.3527 11.4003 50.4881 11.3623 50.6236 11.3156V12.4023C50.4646 12.4724 50.282 12.5309 50.0759 12.5776C49.8697 12.6243 49.6253 12.6477 49.3426 12.6477C49.0423 12.6477 48.7743 12.601 48.5387 12.5075C48.3091 12.4082 48.1265 12.2416 47.991 12.0079C47.8615 11.7684 47.7967 11.4383 47.7967 11.0176V8.85298H47.1783V8.23952L47.9204 7.76627L48.3267 6.74967H49.2808V7.74874H50.5706V8.85298H49.2808V10.9651C49.2808 11.1345 49.3279 11.263 49.4221 11.3507C49.5164 11.4325 49.643 11.4734 49.802 11.4734Z" fill="white" /><path d="M53.6385 7.66111C54.3217 7.66111 54.8635 7.84807 55.264 8.22199C55.6645 8.59007 55.8647 9.13342 55.8647 9.85205V10.5356H52.7993C52.8111 10.8511 52.9141 11.1024 53.1085 11.2893C53.3028 11.4763 53.5796 11.5698 53.9389 11.5698C54.251 11.5698 54.5337 11.5405 54.7869 11.4821C55.0402 11.4237 55.3023 11.3302 55.5732 11.2017V12.2971C55.3376 12.4198 55.0844 12.5075 54.8134 12.5601C54.5425 12.6185 54.2098 12.6477 53.8152 12.6477C53.3264 12.6477 52.8906 12.5601 52.5078 12.3848C52.1309 12.2095 51.8334 11.9408 51.6155 11.5785C51.4035 11.2163 51.2975 10.7518 51.2975 10.1851C51.2975 9.33207 51.5125 8.69815 51.9424 8.28333C52.3723 7.86851 52.9377 7.66111 53.6385 7.66111ZM53.665 8.68647C53.4353 8.68647 53.2439 8.7595 53.0908 8.90556C52.9436 9.05163 52.8552 9.27656 52.8258 9.58037H54.4954C54.4895 9.3233 54.4159 9.11005 54.2746 8.94062C54.1391 8.77118 53.9359 8.68647 53.665 8.68647Z" fill="white" /><path d="M58.396 12.6477C57.8718 12.6477 57.4449 12.4374 57.1151 12.0167C56.7853 11.596 56.6203 10.9767 56.6203 10.1588C56.6203 9.33499 56.7882 8.71276 57.1239 8.2921C57.4596 7.87144 57.8983 7.66111 58.4402 7.66111C58.7817 7.66111 59.0585 7.72829 59.2706 7.86267C59.4826 7.99705 59.6534 8.16356 59.7829 8.36221H59.8183C59.8006 8.25704 59.78 8.10806 59.7564 7.91526C59.7388 7.71661 59.7299 7.52088 59.7299 7.32808V5.89958H61.2229V12.5601H60.0921L59.7918 11.9378H59.7299C59.6063 12.1365 59.4384 12.3059 59.2264 12.4461C59.0203 12.5805 58.7435 12.6477 58.396 12.6477ZM58.9614 11.4734C59.2794 11.4734 59.5032 11.377 59.6328 11.1841C59.7682 10.9913 59.8389 10.6992 59.8448 10.3078V10.1763C59.8448 9.74397 59.78 9.41679 59.6504 9.19477C59.5267 8.96691 59.2912 8.85298 58.9437 8.85298C58.6905 8.85298 58.4902 8.96399 58.343 9.186C58.1958 9.40802 58.1221 9.74104 58.1221 10.1851C58.1221 10.6233 58.1958 10.9475 58.343 11.1579C58.4961 11.3682 58.7022 11.4734 58.9614 11.4734Z" fill="white" /></g></g><g transform="translate(138)"><g id="One Owner - Sm" xmlns="http://www.w3.org/2000/svg"><path d="M0 3.0194C0 1.40848 1.31259 0.102577 2.93176 0.102577L46.0682 -3.56405e-06C47.6874 -3.56405e-06 49 1.3059 49 2.91682V14.9487V26.9806C49 28.5915 47.6874 29.8975 46.0682 29.8975L2.93176 30C1.31259 30 0 28.6941 0 27.0832V3.0194Z" fill="#008738" /><path d="M38.7916 21.8568V19.29H39.4806L40.1696 21.2662L40.8805 19.29H41.5475V21.8568H41.0784V20.3692C41.0784 20.3303 41.0809 20.255 41.0857 20.1432C41.0906 20.0265 41.0955 19.939 41.1004 19.8807H41.0711L40.3308 21.8568H39.9423L39.2387 19.8807H39.2094C39.2143 19.9584 39.2192 20.046 39.2241 20.1432C39.229 20.2404 39.2314 20.3036 39.2314 20.3328V21.8568H38.7916ZM37.2744 21.8568V19.6838H36.5342V19.29H38.4838V19.6838H37.7362V21.8568H37.2744Z" fill="white" /><path d="M11.8055 21.0337C11.8055 21.6812 11.6999 22.2471 11.4888 22.7313C11.2778 23.2097 10.9494 23.583 10.5038 23.8514C10.064 24.1197 9.49231 24.2539 8.78869 24.2539C8.09679 24.2539 7.52803 24.1197 7.08241 23.8514C6.63678 23.583 6.30549 23.2067 6.08854 22.7225C5.87745 22.2384 5.77191 21.6725 5.77191 21.025C5.77191 20.3774 5.87745 19.8145 6.08854 19.3361C6.30549 18.8578 6.63678 18.4873 7.08241 18.2248C7.52803 17.9565 8.09973 17.8223 8.79749 17.8223C9.49525 17.8223 10.064 17.9565 10.5038 18.2248C10.9494 18.4873 11.2778 18.8607 11.4888 19.3449C11.6999 19.8232 11.8055 20.3862 11.8055 21.0337ZM7.34626 21.0337C7.34626 21.6462 7.45767 22.1275 7.68048 22.4775C7.90916 22.8276 8.27856 23.0026 8.78869 23.0026C9.30468 23.0026 9.67408 22.8276 9.8969 22.4775C10.1197 22.1275 10.2311 21.6462 10.2311 21.0337C10.2311 20.4212 10.1197 19.9399 9.8969 19.5899C9.67995 19.234 9.31348 19.0561 8.79749 19.0561C8.2815 19.0561 7.90916 19.234 7.68048 19.5899C7.45767 19.9399 7.34626 20.4212 7.34626 21.0337Z" fill="white" /><path d="M16.985 24.1664L16.554 22.285C16.5306 22.18 16.4983 22.0458 16.4573 21.8825C16.4221 21.7133 16.384 21.5354 16.343 21.3487C16.3078 21.1621 16.2726 20.9929 16.2374 20.8412C16.2081 20.6837 16.1846 20.567 16.167 20.4912H16.1319C16.1201 20.567 16.0967 20.6837 16.0615 20.8412C16.0322 20.9987 15.997 21.1708 15.956 21.3575C15.9149 21.5442 15.8739 21.725 15.8328 21.9C15.7976 22.0692 15.7683 22.2121 15.7449 22.3288L15.3051 24.1664H13.7307L12.3851 19.3624H13.8451L14.3288 21.3575C14.364 21.5033 14.3963 21.6754 14.4256 21.8738C14.4608 22.0663 14.4901 22.2588 14.5135 22.4513C14.5428 22.638 14.5634 22.7984 14.5751 22.9326H14.6015C14.6073 22.8334 14.6191 22.7138 14.6367 22.5738C14.6601 22.428 14.6836 22.2821 14.707 22.1363C14.7363 21.9846 14.7627 21.8504 14.7862 21.7337C14.8096 21.6171 14.8243 21.5383 14.8302 21.4975L15.3579 19.3624H16.9938L17.4863 21.5062C17.5039 21.5996 17.5303 21.7367 17.5655 21.9175C17.6007 22.0925 17.6329 22.2734 17.6622 22.46C17.6916 22.6467 17.7092 22.8042 17.715 22.9326H17.7414C17.7531 22.8101 17.7707 22.6525 17.7942 22.46C17.8235 22.2617 17.8557 22.0633 17.8909 21.865C17.9261 21.6608 17.9613 21.4916 17.9965 21.3575L18.4978 19.3624H19.9402L18.577 24.1664H16.985Z" fill="white" /><path d="M23.5451 19.2749C24.0552 19.2749 24.4656 19.4149 24.7764 19.6949C25.093 19.9691 25.2513 20.4153 25.2513 21.0337V24.1664H23.7737V21.445C23.7737 21.1125 23.718 20.8616 23.6066 20.6924C23.4952 20.5233 23.3193 20.4387 23.0789 20.4387C22.7154 20.4387 22.4691 20.5728 22.3401 20.8412C22.217 21.1037 22.1554 21.4829 22.1554 21.9788V24.1664H20.669V19.3624H21.7948L21.9971 19.9837H22.0674C22.2199 19.7503 22.4222 19.5753 22.6743 19.4586C22.9323 19.3361 23.2226 19.2749 23.5451 19.2749Z" fill="white" /><path d="M28.5855 19.2749C29.2657 19.2749 29.8051 19.4615 30.2038 19.8349C30.6026 20.2024 30.8019 20.7449 30.8019 21.4625V22.145H27.75C27.7617 22.46 27.8643 22.7109 28.0578 22.8976C28.2513 23.0842 28.5269 23.1776 28.8846 23.1776C29.1953 23.1776 29.4768 23.1484 29.7289 23.0901C29.981 23.0317 30.242 22.9384 30.5117 22.8101V23.9039C30.2771 24.0264 30.025 24.1139 29.7553 24.1664C29.4856 24.2247 29.1543 24.2539 28.7614 24.2539C28.2747 24.2539 27.8408 24.1664 27.4597 23.9914C27.0844 23.8164 26.7883 23.548 26.5714 23.1863C26.3603 22.8246 26.2548 22.3609 26.2548 21.795C26.2548 20.9433 26.4688 20.3103 26.8968 19.8961C27.3249 19.482 27.8877 19.2749 28.5855 19.2749ZM28.6119 20.2987C28.3832 20.2987 28.1927 20.3716 28.0402 20.5174C27.8936 20.6633 27.8057 20.8879 27.7763 21.1912H29.4387C29.4328 20.9345 29.3595 20.7216 29.2188 20.5524C29.0839 20.3833 28.8816 20.2987 28.6119 20.2987Z" fill="white" /><path d="M34.6062 19.2749C34.6825 19.2749 34.7675 19.2807 34.8613 19.2924C34.9551 19.2982 35.0284 19.3069 35.0812 19.3186L34.958 20.7012C34.8408 20.672 34.6824 20.6574 34.4831 20.6574C34.2955 20.6574 34.1078 20.6895 33.9202 20.7537C33.7384 20.812 33.586 20.92 33.4628 21.0775C33.3456 21.235 33.2869 21.4625 33.2869 21.76V24.1664H31.8005V19.3624H32.9175L33.1462 20.1499H33.2078C33.3485 19.9107 33.5391 19.7066 33.7795 19.5374C34.0257 19.3624 34.3013 19.2749 34.6062 19.2749Z" fill="white" /><path d="M11.8055 9.18411C11.8055 9.83164 11.6999 10.3975 11.4888 10.8817C11.2778 11.3601 10.9494 11.7334 10.5038 12.0018C10.064 12.2701 9.49231 12.4043 8.78869 12.4043C8.09679 12.4043 7.52803 12.2701 7.08241 12.0018C6.63678 11.7334 6.30549 11.3571 6.08854 10.8729C5.87745 10.3888 5.77191 9.82289 5.77191 9.17536C5.77191 8.52782 5.87745 7.96487 6.08854 7.48651C6.30549 7.00815 6.63678 6.63771 7.08241 6.3752C7.52803 6.10685 8.09973 5.97267 8.79749 5.97267C9.49525 5.97267 10.064 6.10685 10.5038 6.3752C10.9494 6.63771 11.2778 7.01106 11.4888 7.49526C11.6999 7.97362 11.8055 8.53657 11.8055 9.18411ZM7.34626 9.18411C7.34626 9.79664 7.45767 10.2779 7.68048 10.6279C7.90916 10.978 8.27856 11.153 8.78869 11.153C9.30468 11.153 9.67408 10.978 9.8969 10.6279C10.1197 10.2779 10.2311 9.79664 10.2311 9.18411C10.2311 8.57157 10.1197 8.09029 9.8969 7.74027C9.67995 7.38442 9.31348 7.20649 8.79749 7.20649C8.2815 7.20649 7.90916 7.38442 7.68048 7.74027C7.45767 8.09029 7.34626 8.57157 7.34626 9.18411Z" fill="white" /><path d="M15.7976 7.42525C16.3078 7.42525 16.7182 7.56526 17.029 7.84528C17.3456 8.11946 17.5039 8.56574 17.5039 9.18411V12.3168H16.0263V9.59538C16.0263 9.26286 15.9706 9.01201 15.8592 8.84284C15.7478 8.67366 15.5719 8.58907 15.3315 8.58907C14.968 8.58907 14.7217 8.72325 14.5927 8.9916C14.4696 9.25411 14.408 9.6333 14.408 10.1292V12.3168H12.9216V7.51276H14.0474L14.2497 8.13405H14.32C14.4725 7.9007 14.6748 7.72569 14.9269 7.60901C15.1849 7.48651 15.4751 7.42525 15.7976 7.42525Z" fill="white" /><path d="M20.8381 7.42525C21.5183 7.42525 22.0577 7.61193 22.4564 7.98528C22.8552 8.3528 23.0545 8.89534 23.0545 9.61288V10.2954H20.0025C20.0143 10.6104 20.1169 10.8613 20.3104 11.048C20.5039 11.2346 20.7795 11.328 21.1371 11.328C21.4479 11.328 21.7294 11.2988 21.9815 11.2405C22.2336 11.1821 22.4945 11.0888 22.7643 10.9605V12.0543C22.5297 12.1768 22.2776 12.2643 22.0079 12.3168C21.7381 12.3751 21.4069 12.4043 21.014 12.4043C20.5273 12.4043 20.0934 12.3168 19.7123 12.1418C19.337 11.9668 19.0409 11.6984 18.824 11.3367C18.6129 10.975 18.5073 10.5113 18.5073 9.9454C18.5073 9.09369 18.7214 8.46073 19.1494 8.04655C19.5774 7.63236 20.1403 7.42525 20.8381 7.42525ZM20.8645 8.44907C20.6358 8.44907 20.4452 8.52199 20.2928 8.66783C20.1462 8.81367 20.0582 9.03827 20.0289 9.34162H21.6912C21.6854 9.08494 21.6121 8.87201 21.4714 8.70283C21.3365 8.53365 21.1342 8.44907 20.8645 8.44907Z" fill="white" /></g></g></svg>